<svg width="89" height="45" viewBox="0 0 89 45" fill="none" xmlns="http://www.w3.org/2000/svg">
<path d="M7.4306 14.8657H22.2963V22.2963H7.4306V14.8657Z" fill="#EF4050"/>
<path d="M0 22.2964H7.43053V44.5974H0V22.2964Z" fill="#EF4050"/>
<path d="M72.9371 14.8657H87.8028V22.2963H72.9371V14.8657Z" fill="#EF4050"/>
<path d="M65.5065 22.2964H72.9371V44.5974H65.5065V22.2964Z" fill="#EF4050"/>
<path d="M28.3493 0V22.2963L35.7845 14.8657V0H28.3493Z" fill="#EF4050"/>
<path d="M35.7845 14.8657H50.6424V22.2963H35.7845V14.8657Z" fill="#EF4050"/>
<path d="M50.6456 22.2964H58.0761V44.5974H50.6456V22.2964Z" fill="#EF4050"/>
<path d="M28.3539 22.2964H35.7845V44.5974H28.3539V22.2964Z" fill="#EF4050"/>
<path d="M0 22.2963H7.43053V14.8657L0 22.2963Z" fill="#A1284B"/>
<path d="M65.5065 22.2963H72.9371V14.8657L65.5065 22.2963Z" fill="#A1284B"/>
<path d="M35.7845 14.8657V22.2963H28.3493L35.7845 14.8657Z" fill="#A1284B"/>
<path d="M58.076 22.2963H50.6408V14.8657L58.076 22.2963Z" fill="#A1284B"/>
<path d="M85.4934 44.6926C85.4777 44.6926 85.459 44.6926 85.4386 44.6926C83.9188 44.6926 82.6866 43.4604 82.6866 41.9405C82.6866 40.4206 83.9188 39.1885 85.4386 39.1885C86.9585 39.1885 88.1907 40.4206 88.1907 41.939C88.1907 41.9609 88.1922 41.9874 88.1922 42.014C88.1922 43.4917 86.9945 44.691 85.5152 44.691C85.5074 44.691 85.4996 44.691 85.4918 44.691H85.4934V44.6926ZM85.4934 39.6716C85.4715 39.6716 85.4449 39.6701 85.4183 39.6701C84.1627 39.6701 83.1447 40.688 83.1447 41.9437C83.1447 43.1993 84.1627 44.2172 85.4183 44.2172C86.6739 44.2172 87.6919 43.1993 87.6919 41.9437C87.6919 41.9421 87.6919 41.9421 87.6919 41.9405C87.6934 41.903 87.695 41.8592 87.695 41.8154C87.695 40.6317 86.7349 39.6716 85.5512 39.6716C85.5309 39.6716 85.5106 39.6716 85.4902 39.6732H85.4934V39.6716ZM86.0969 43.3306L85.6185 42.2767H85.0571V43.3306H84.5583V40.4785H85.6122C85.6435 40.4754 85.6794 40.4722 85.717 40.4722C86.2189 40.4722 86.627 40.8757 86.6333 41.376C86.6348 41.3948 86.6348 41.4167 86.6348 41.437C86.6348 41.7842 86.4237 42.0813 86.122 42.2063L86.1157 42.2079L86.6442 43.3447L86.0969 43.3306ZM85.6091 40.9288H85.0508V41.8107H85.6091C85.9093 41.8107 86.1048 41.6778 86.1048 41.3651C86.1048 41.3635 86.1048 41.362 86.1048 41.3604C86.1048 41.1196 85.9093 40.9226 85.6669 40.9226C85.6466 40.9226 85.6263 40.9241 85.606 40.9273H85.6075L85.6091 40.9288Z" fill="#EF4050"/>
</svg>
