<svg width="45" height="45" viewBox="0 0 45 45" fill="none" xmlns="http://www.w3.org/2000/svg">
<path d="M23.0008 23.6087C27.0182 23.6087 30.3051 20.3217 30.3051 16.3043C30.3051 12.287 27.0182 9 23.0008 9C18.9834 9 15.6964 12.287 15.6964 16.3043C15.6964 20.3217 18.9834 23.6087 23.0008 23.6087ZM23.0008 11.4348C25.679 11.4348 27.8703 13.6261 27.8703 16.3043C27.8703 18.9826 25.679 21.1739 23.0008 21.1739C20.3225 21.1739 18.1312 18.9826 18.1312 16.3043C18.1312 13.6261 20.3225 11.4348 23.0008 11.4348Z" fill="white"/>
<path d="M23 25.4351C15.3304 25.4351 9 28.7655 9 36.4351C9 37.1655 9.48696 37.6525 10.2174 37.6525C10.9478 37.6525 11.4348 37.1655 11.4348 36.4351C11.4348 30.1046 16.6696 27.8698 23 27.8698C29.3304 27.8698 34.5652 30.1046 34.5652 36.4351C34.5652 37.1655 35.0522 37.6525 35.7826 37.6525C36.513 37.6525 37 37.1655 37 36.4351C37 28.7655 30.6696 25.4351 23 25.4351Z" fill="white"/>
</svg>
